<svg width="55" xmlns="http://www.w3.org/2000/svg" height="55" id="screenshot-21b189aa-8d71-802e-8007-69c209d846e8" viewBox="0 0 55 55" xmlns:xlink="http://www.w3.org/1999/xlink" fill="none" version="1.1"><g id="shape-21b189aa-8d71-802e-8007-69c209d846e8" rx="0" ry="0" style="fill: rgb(0, 0, 0);"><g id="shape-39012618-5002-8074-8007-6a4728887c89"><g class="fills" id="fills-39012618-5002-8074-8007-6a4728887c89"><rect rx="0" ry="0" x="0" y="0" transform="matrix(1.000000, 0.000000, 0.000000, 1.000000, 0.000000, 0.000000)" width="55" height="55" style="fill: rgb(0, 0, 0); fill-opacity: 1;"/></g></g><g id="shape-21b189aa-8d71-802e-8007-69c209d92341"><g class="fills" id="fills-21b189aa-8d71-802e-8007-69c209d92341"><path d="M28,3.001953125C14.193527221679688,3.001953125,3.000640869140625,14.189453125,3,27.99609375C2.997894287109375,41.806640625,14.191650390625,53,28,53C41.808349609375,53,53.002098083496094,41.806640625,53,27.99609375C52.999366760253906,14.189453125,41.80647277832031,3.001953125,28,3.001953125M26.272926330566406,14.318359375L42.002098083496094,14.318359375L26.209381103515625,25.45703125L37.00688171386719,25.45703125L13.9979248046875,41.67578125C18.090408325195312,32.560546875,22.182083129882812,23.44140625,26.272926330566406,14.318359375"/></g><g id="strokes-8b2cca75-8f76-804e-8007-6a98ddc6b3c3-21b189aa-8d71-802e-8007-69c209d92341" class="strokes"><g class="stroke-shape"><path d="M28,3.001953125C14.193527221679688,3.001953125,3.000640869140625,14.189453125,3,27.99609375C2.997894287109375,41.806640625,14.191650390625,53,28,53C41.808349609375,53,53.002098083496094,41.806640625,53,27.99609375C52.999366760253906,14.189453125,41.80647277832031,3.001953125,28,3.001953125M26.272926330566406,14.318359375L42.002098083496094,14.318359375L26.209381103515625,25.45703125L37.00688171386719,25.45703125L13.9979248046875,41.67578125C18.090408325195312,32.560546875,22.182083129882812,23.44140625,26.272926330566406,14.318359375" style="fill: none; stroke-width: 2; stroke: rgb(255, 255, 255); stroke-opacity: 1;"/></g></g></g></g></svg>