<svg width="56" xmlns="http://www.w3.org/2000/svg" height="56" id="screenshot-21b189aa-8d71-802e-8007-69c3e7963c66" viewBox="0 0 56 56" xmlns:xlink="http://www.w3.org/1999/xlink" fill="none" version="1.1"><g id="shape-21b189aa-8d71-802e-8007-69c3e7963c66" rx="0" ry="0" style="fill: rgb(0, 0, 0);"><g id="shape-39012618-5002-8074-8007-6a4764046eef"><g class="fills" id="fills-39012618-5002-8074-8007-6a4764046eef"><path d="M0,0L56,0L56,56L0,56L0,0" style="fill: rgb(0, 0, 0); fill-opacity: 1;"/></g></g><g id="shape-21b189aa-8d71-802e-8007-69c3e796db67"><g class="fills" id="fills-21b189aa-8d71-802e-8007-69c3e796db67"><path d="M41.88543701171875,48.7890625C37.91249084472656,51.44921875,33.135406494140625,53,28,53C14.202079772949219,53,3,41.798828125,3,28C3,14.201171875,14.202079772949219,3,28,3C41.79792022705078,3,53,14.201171875,53,28C53,35.462890625,49.7208251953125,42.16796875,44.52708435058594,46.75390625L22.20623779296875,17.998046875L17.99999237060547,17.998046875L17.99999237060547,37.994140625L21.364585876464844,37.994140625L21.364585876464844,22.275390625L41.88543701171875,48.7890625ZM34.943763732910156,31.01171875L38.27708435058594,35.3046875L38.27708435058594,17.998046875L34.943763732910156,17.998046875L34.943763732910156,31.01171875Z"/></g><g id="strokes-8b2cca75-8f76-804e-8007-6a98ddc55059-21b189aa-8d71-802e-8007-69c3e796db67" class="strokes"><g class="outer-stroke-shape"><defs><mask id="outer-stroke-render-6-21b189aa-8d71-802e-8007-69c3e796db67-0" x="-3.0355339059327378" y="-3.0355339059327378" width="62.071067811865476" height="62.071067811865476" maskUnits="userSpaceOnUse"><use href="#stroke-shape-render-6-21b189aa-8d71-802e-8007-69c3e796db67-0" style="fill: none; stroke: white; stroke-width: 5;"/><use href="#stroke-shape-render-6-21b189aa-8d71-802e-8007-69c3e796db67-0" style="fill: black; stroke: none;"/></mask><path d="M41.88543701171875,48.7890625C37.91249084472656,51.44921875,33.135406494140625,53,28,53C14.202079772949219,53,3,41.798828125,3,28C3,14.201171875,14.202079772949219,3,28,3C41.79792022705078,3,53,14.201171875,53,28C53,35.462890625,49.7208251953125,42.16796875,44.52708435058594,46.75390625L22.20623779296875,17.998046875L17.99999237060547,17.998046875L17.99999237060547,37.994140625L21.364585876464844,37.994140625L21.364585876464844,22.275390625L41.88543701171875,48.7890625ZM34.943763732910156,31.01171875L38.27708435058594,35.3046875L38.27708435058594,17.998046875L34.943763732910156,17.998046875L34.943763732910156,31.01171875Z" id="stroke-shape-render-6-21b189aa-8d71-802e-8007-69c3e796db67-0"/></defs><use href="#stroke-shape-render-6-21b189aa-8d71-802e-8007-69c3e796db67-0" mask="url(#outer-stroke-render-6-21b189aa-8d71-802e-8007-69c3e796db67-0)" style="fill: none; stroke-width: 5; stroke: rgb(255, 255, 255); stroke-opacity: 1;"/><use href="#stroke-shape-render-6-21b189aa-8d71-802e-8007-69c3e796db67-0" style="fill: none; stroke-width: 2.5; stroke: none; stroke-opacity: 1;"/></g></g></g></g></svg>