<svg width="55" xmlns="http://www.w3.org/2000/svg" height="55" id="screenshot-21b189aa-8d71-802e-8007-69c1958abf93" viewBox="0 0 55 55" xmlns:xlink="http://www.w3.org/1999/xlink" fill="none" version="1.1"><g id="shape-21b189aa-8d71-802e-8007-69c1958abf93" rx="0" ry="0" style="fill: rgb(0, 0, 0);"><g id="shape-39012618-5002-8074-8007-6a474e0dc81c"><g class="fills" id="fills-39012618-5002-8074-8007-6a474e0dc81c"><rect rx="0" ry="0" x="0" y="0" transform="matrix(1.000000, 0.000000, 0.000000, 1.000000, 0.000000, 0.000000)" width="55" height="55" style="fill: rgb(177, 178, 181); fill-opacity: 0;"/></g></g><g id="shape-21b189aa-8d71-802e-8007-69c1958c2d61"><g class="fills" id="fills-21b189aa-8d71-802e-8007-69c1958c2d61"><path d="M38.97291564941406,3L44.4375,3L44.4375,40.71484375L38.97291564941406,40.71484375ZM30.377090454101562,29.95703125L35.8416748046875,29.95703125L35.8416748046875,35.3125L30.377090454101562,35.3125ZM30.377090454101562,15.296875L35.8416748046875,15.296875L35.8416748046875,26.64453125L30.377090454101562,26.64453125ZM30.377090454101562,38.625L35.8416748046875,38.625L35.8416748046875,49.97265625L30.377090454101562,49.97265625ZM13.0020751953125,15.28515625L18.464584350585938,15.28515625L18.464584350585938,53L13,53ZM21.7791748046875,20.615234375L27.243728637695312,20.615234375L27.243728637695312,25.96875L21.78125,25.96875ZM21.7791748046875,29.26171875L27.243728637695312,29.26171875L27.243728637695312,40.609375L21.78125,40.609375ZM21.7791748046875,5.958984375L27.243728637695312,5.958984375L27.243728637695312,17.302734375L21.78125,17.302734375Z"/></g><g id="strokes-8b2cca75-8f76-804e-8007-6a98ddc9f47a-21b189aa-8d71-802e-8007-69c1958c2d61" class="strokes"><g class="stroke-shape"><path d="M38.97291564941406,3L44.4375,3L44.4375,40.71484375L38.97291564941406,40.71484375ZM30.377090454101562,29.95703125L35.8416748046875,29.95703125L35.8416748046875,35.3125L30.377090454101562,35.3125ZM30.377090454101562,15.296875L35.8416748046875,15.296875L35.8416748046875,26.64453125L30.377090454101562,26.64453125ZM30.377090454101562,38.625L35.8416748046875,38.625L35.8416748046875,49.97265625L30.377090454101562,49.97265625ZM13.0020751953125,15.28515625L18.464584350585938,15.28515625L18.464584350585938,53L13,53ZM21.7791748046875,20.615234375L27.243728637695312,20.615234375L27.243728637695312,25.96875L21.78125,25.96875ZM21.7791748046875,29.26171875L27.243728637695312,29.26171875L27.243728637695312,40.609375L21.78125,40.609375ZM21.7791748046875,5.958984375L27.243728637695312,5.958984375L27.243728637695312,17.302734375L21.78125,17.302734375Z" style="fill: none; stroke-width: 2; stroke: rgb(255, 255, 255); stroke-opacity: 1;"/></g></g></g></g></svg>