<svg width="55" xmlns="http://www.w3.org/2000/svg" height="55" id="screenshot-21b189aa-8d71-802e-8007-69c159395d06" viewBox="0 0 55 55" xmlns:xlink="http://www.w3.org/1999/xlink" fill="none" version="1.1"><g id="shape-21b189aa-8d71-802e-8007-69c159395d06" rx="0" ry="0" style="fill: rgb(0, 0, 0);"><g id="shape-39012618-5002-8074-8007-6a470dd55748"><g class="fills" id="fills-39012618-5002-8074-8007-6a470dd55748"><rect rx="0" ry="0" x="0" y="0" transform="matrix(1.000000, 0.000000, 0.000000, 1.000000, 0.000000, 0.000000)" width="55" height="55" style="fill: rgb(177, 178, 181); fill-opacity: 0;"/></g></g><g id="shape-21b189aa-8d71-802e-8007-69c1593b69ae"><g class="fills" id="fills-21b189aa-8d71-802e-8007-69c1593b69ae"><path d="M32.6641845703125,3.375L34.52984619140625,3.79296875L36.04315185546875,4.333984375L37.26617431640625,4.95703125L38.199005126953125,5.625L38.90380859375,6.33203125L39.422027587890625,7.041015625L39.75372314453125,7.728515625L39.9610595703125,8.35546875L40.0439453125,8.896484375L40.08538818359375,9.310546875L40.064697265625,9.583984375L40.064697265625,20.708984375L39.9610595703125,22.0234375L39.6915283203125,23.166015625L39.25616455078125,24.126953125L38.71722412109375,24.916015625L38.0953369140625,25.5625L37.41131591796875,26.083984375L36.68572998046875,26.478515625L35.960205078125,26.771484375L35.276092529296875,26.978515625L34.65423583984375,27.125L34.115234375,27.20703125L33.679931640625,27.251953125L21.3043212890625,27.251953125L19.87396240234375,27.353515625L18.650909423828125,27.646484375L17.61444091796875,28.10546875L16.7645263671875,28.66796875L16.0804443359375,29.333984375L15.520721435546875,30.0625L15.10614013671875,30.8125L14.795196533203125,31.583984375L14.587890625,32.3125L14.44281005859375,32.98046875L14.35986328125,33.54296875L14.318389892578125,33.9765625L14.318389892578125,40.353515625L9.6956787109375,40.353515625L9.2603759765625,40.29296875L8.679931640625,40.146484375L8.0166015625,39.8984375L7.291015625,39.51953125L6.54473876953125,38.978515625L5.798492431640625,38.23046875L5.072967529296875,37.26953125L4.40960693359375,36.041015625L3.829193115234375,34.5234375L3.39385986328125,32.6875L3.103668212890625,30.498046875L3,27.939453125L3.124359130859375,25.396484375L3.4560546875,23.23046875L3.95355224609375,21.416015625L4.616943359375,19.939453125L5.3631591796875,18.751953125L6.1923828125,17.83203125L7.06298828125,17.14453125L7.93365478515625,16.6484375L8.76287841796875,16.314453125L9.50909423828125,16.1015625L10.172454833984375,16L10.66998291015625,15.98046875L11.00164794921875,15.98046875L11.12603759765625,16L28.04144287109375,16L28.04144287109375,14.271484375L15.935302734375,14.271484375L15.91461181640625,8.54296875L15.87310791015625,7.76953125L15.976776123046875,7.060546875L16.204803466796875,6.41796875L16.55718994140625,5.83203125L17.075439453125,5.291015625L17.718048095703125,4.810546875L18.50579833984375,4.396484375L19.41790771484375,4.021484375L20.47509765625,3.70703125L21.67742919921875,3.458984375L23.004150390625,3.248046875L24.4759521484375,3.126953125L26.0721435546875,3.041015625L27.81341552734375,3L30.446075439453125,3.10546875L32.6641845703125,3.375M19.604461669921875,7.5L19.127685546875,8.1875L18.96185302734375,9.04296875L19.127685546875,9.896484375L19.604461669921875,10.60546875L20.28857421875,11.060546875L21.13848876953125,11.251953125L21.9884033203125,11.060546875L22.672454833984375,10.60546875L23.149261474609375,9.896484375L23.31512451171875,9.04296875L23.149261474609375,8.1875L22.672454833984375,7.5L21.9884033203125,7.041015625L21.13848876953125,6.853515625L20.28857421875,7.041015625L19.604461669921875,7.5M46.7396240234375,15.728515625L47.320068359375,15.853515625L47.9833984375,16.1015625L48.708984375,16.48046875L49.45526123046875,17.04296875L50.20147705078125,17.76953125L50.927032470703125,18.751953125L51.59039306640625,19.98046875L52.170806884765625,21.501953125L52.60614013671875,23.33203125L52.896331787109375,25.501953125L53,28.060546875L52.875640869140625,30.625L52.5439453125,32.79296875L52.04644775390625,34.583984375L51.383056640625,36.060546875L50.63677978515625,37.248046875L49.8076171875,38.189453125L48.93701171875,38.876953125L48.06634521484375,39.376953125L47.23712158203125,39.70703125L46.49090576171875,39.8984375L45.827545166015625,40L45.33001708984375,40.041015625L44.998321533203125,40.01953125L27.95849609375,40.01953125L27.95849609375,41.728515625L40.064697265625,41.728515625L40.08538818359375,47.478515625L40.126861572265625,48.23046875L40.023223876953125,48.939453125L39.795196533203125,49.58203125L39.44281005859375,50.1875L38.924560546875,50.708984375L38.28192138671875,51.208984375L37.49420166015625,51.625L36.58209228515625,51.978515625L35.524871826171875,52.29296875L34.322540283203125,52.560546875L32.995849609375,52.751953125L31.5240478515625,52.89453125L29.9278564453125,52.98046875L28.18658447265625,53L25.553924560546875,52.91796875L23.3358154296875,52.625L21.47015380859375,52.20703125L19.95684814453125,51.685546875L18.73382568359375,51.0625L17.800994873046875,50.375L17.09619140625,49.66796875L16.57794189453125,48.958984375L16.24627685546875,48.271484375L16.0389404296875,47.64453125L15.9560546875,47.125L15.91461181640625,46.708984375L15.935302734375,46.4375L15.935302734375,35.3125L16.0389404296875,33.9765625L16.3084716796875,32.853515625L16.7437744140625,31.89453125L17.28277587890625,31.10546875L17.9046630859375,30.4375L18.5887451171875,29.9375L19.31427001953125,29.521484375L20.039794921875,29.228515625L20.723876953125,29.021484375L21.345733642578125,28.89453125L21.884765625,28.814453125L22.320037841796875,28.76953125L22.58953857421875,28.748046875L34.6956787109375,28.748046875L36.12603759765625,28.646484375L37.34906005859375,28.353515625L38.38555908203125,27.91796875L39.2354736328125,27.33203125L39.9195556640625,26.666015625L40.479278564453125,25.9375L40.89385986328125,25.1875L41.204803466796875,24.435546875L41.412109375,23.70703125L41.55718994140625,23.0390625L41.64013671875,22.45703125L41.681610107421875,22.0234375L41.681610107421875,15.646484375L46.01409912109375,15.646484375L46.3043212890625,15.666015625L46.7396240234375,15.728515625M33.327545166015625,45.416015625L32.850738525390625,46.103515625L32.68487548828125,46.95703125L32.850738525390625,47.8125L33.327545166015625,48.5L34.0115966796875,48.98046875L34.86151123046875,49.146484375L35.71142578125,48.98046875L36.3955078125,48.5L36.872283935546875,47.8125L37.03814697265625,46.95703125L36.872283935546875,46.103515625L36.3955078125,45.416015625L35.71142578125,44.939453125L34.86151123046875,44.7734375L34.0115966796875,44.939453125L33.327545166015625,45.416015625"/></g><g id="strokes-8b2cca75-8f76-804e-8007-6a98ddc85713-21b189aa-8d71-802e-8007-69c1593b69ae" class="strokes"><g class="inner-stroke-shape"><defs><clipPath id="inner-stroke-render-12-21b189aa-8d71-802e-8007-69c1593b69ae-0"><use href="#stroke-shape-render-12-21b189aa-8d71-802e-8007-69c1593b69ae-0"/></clipPath><path d="M32.6641845703125,3.375L34.52984619140625,3.79296875L36.04315185546875,4.333984375L37.26617431640625,4.95703125L38.199005126953125,5.625L38.90380859375,6.33203125L39.422027587890625,7.041015625L39.75372314453125,7.728515625L39.9610595703125,8.35546875L40.0439453125,8.896484375L40.08538818359375,9.310546875L40.064697265625,9.583984375L40.064697265625,20.708984375L39.9610595703125,22.0234375L39.6915283203125,23.166015625L39.25616455078125,24.126953125L38.71722412109375,24.916015625L38.0953369140625,25.5625L37.41131591796875,26.083984375L36.68572998046875,26.478515625L35.960205078125,26.771484375L35.276092529296875,26.978515625L34.65423583984375,27.125L34.115234375,27.20703125L33.679931640625,27.251953125L21.3043212890625,27.251953125L19.87396240234375,27.353515625L18.650909423828125,27.646484375L17.61444091796875,28.10546875L16.7645263671875,28.66796875L16.0804443359375,29.333984375L15.520721435546875,30.0625L15.10614013671875,30.8125L14.795196533203125,31.583984375L14.587890625,32.3125L14.44281005859375,32.98046875L14.35986328125,33.54296875L14.318389892578125,33.9765625L14.318389892578125,40.353515625L9.6956787109375,40.353515625L9.2603759765625,40.29296875L8.679931640625,40.146484375L8.0166015625,39.8984375L7.291015625,39.51953125L6.54473876953125,38.978515625L5.798492431640625,38.23046875L5.072967529296875,37.26953125L4.40960693359375,36.041015625L3.829193115234375,34.5234375L3.39385986328125,32.6875L3.103668212890625,30.498046875L3,27.939453125L3.124359130859375,25.396484375L3.4560546875,23.23046875L3.95355224609375,21.416015625L4.616943359375,19.939453125L5.3631591796875,18.751953125L6.1923828125,17.83203125L7.06298828125,17.14453125L7.93365478515625,16.6484375L8.76287841796875,16.314453125L9.50909423828125,16.1015625L10.172454833984375,16L10.66998291015625,15.98046875L11.00164794921875,15.98046875L11.12603759765625,16L28.04144287109375,16L28.04144287109375,14.271484375L15.935302734375,14.271484375L15.91461181640625,8.54296875L15.87310791015625,7.76953125L15.976776123046875,7.060546875L16.204803466796875,6.41796875L16.55718994140625,5.83203125L17.075439453125,5.291015625L17.718048095703125,4.810546875L18.50579833984375,4.396484375L19.41790771484375,4.021484375L20.47509765625,3.70703125L21.67742919921875,3.458984375L23.004150390625,3.248046875L24.4759521484375,3.126953125L26.0721435546875,3.041015625L27.81341552734375,3L30.446075439453125,3.10546875L32.6641845703125,3.375M19.604461669921875,7.5L19.127685546875,8.1875L18.96185302734375,9.04296875L19.127685546875,9.896484375L19.604461669921875,10.60546875L20.28857421875,11.060546875L21.13848876953125,11.251953125L21.9884033203125,11.060546875L22.672454833984375,10.60546875L23.149261474609375,9.896484375L23.31512451171875,9.04296875L23.149261474609375,8.1875L22.672454833984375,7.5L21.9884033203125,7.041015625L21.13848876953125,6.853515625L20.28857421875,7.041015625L19.604461669921875,7.5M46.7396240234375,15.728515625L47.320068359375,15.853515625L47.9833984375,16.1015625L48.708984375,16.48046875L49.45526123046875,17.04296875L50.20147705078125,17.76953125L50.927032470703125,18.751953125L51.59039306640625,19.98046875L52.170806884765625,21.501953125L52.60614013671875,23.33203125L52.896331787109375,25.501953125L53,28.060546875L52.875640869140625,30.625L52.5439453125,32.79296875L52.04644775390625,34.583984375L51.383056640625,36.060546875L50.63677978515625,37.248046875L49.8076171875,38.189453125L48.93701171875,38.876953125L48.06634521484375,39.376953125L47.23712158203125,39.70703125L46.49090576171875,39.8984375L45.827545166015625,40L45.33001708984375,40.041015625L44.998321533203125,40.01953125L27.95849609375,40.01953125L27.95849609375,41.728515625L40.064697265625,41.728515625L40.08538818359375,47.478515625L40.126861572265625,48.23046875L40.023223876953125,48.939453125L39.795196533203125,49.58203125L39.44281005859375,50.1875L38.924560546875,50.708984375L38.28192138671875,51.208984375L37.49420166015625,51.625L36.58209228515625,51.978515625L35.524871826171875,52.29296875L34.322540283203125,52.560546875L32.995849609375,52.751953125L31.5240478515625,52.89453125L29.9278564453125,52.98046875L28.18658447265625,53L25.553924560546875,52.91796875L23.3358154296875,52.625L21.47015380859375,52.20703125L19.95684814453125,51.685546875L18.73382568359375,51.0625L17.800994873046875,50.375L17.09619140625,49.66796875L16.57794189453125,48.958984375L16.24627685546875,48.271484375L16.0389404296875,47.64453125L15.9560546875,47.125L15.91461181640625,46.708984375L15.935302734375,46.4375L15.935302734375,35.3125L16.0389404296875,33.9765625L16.3084716796875,32.853515625L16.7437744140625,31.89453125L17.28277587890625,31.10546875L17.9046630859375,30.4375L18.5887451171875,29.9375L19.31427001953125,29.521484375L20.039794921875,29.228515625L20.723876953125,29.021484375L21.345733642578125,28.89453125L21.884765625,28.814453125L22.320037841796875,28.76953125L22.58953857421875,28.748046875L34.6956787109375,28.748046875L36.12603759765625,28.646484375L37.34906005859375,28.353515625L38.38555908203125,27.91796875L39.2354736328125,27.33203125L39.9195556640625,26.666015625L40.479278564453125,25.9375L40.89385986328125,25.1875L41.204803466796875,24.435546875L41.412109375,23.70703125L41.55718994140625,23.0390625L41.64013671875,22.45703125L41.681610107421875,22.0234375L41.681610107421875,15.646484375L46.01409912109375,15.646484375L46.3043212890625,15.666015625L46.7396240234375,15.728515625M33.327545166015625,45.416015625L32.850738525390625,46.103515625L32.68487548828125,46.95703125L32.850738525390625,47.8125L33.327545166015625,48.5L34.0115966796875,48.98046875L34.86151123046875,49.146484375L35.71142578125,48.98046875L36.3955078125,48.5L36.872283935546875,47.8125L37.03814697265625,46.95703125L36.872283935546875,46.103515625L36.3955078125,45.416015625L35.71142578125,44.939453125L34.86151123046875,44.7734375L34.0115966796875,44.939453125L33.327545166015625,45.416015625" id="stroke-shape-render-12-21b189aa-8d71-802e-8007-69c1593b69ae-0" style="fill: none; stroke-width: 2.8; stroke: rgb(255, 255, 255); stroke-opacity: 1;"/></defs><use href="#stroke-shape-render-12-21b189aa-8d71-802e-8007-69c1593b69ae-0" clip-path="url('#inner-stroke-render-12-21b189aa-8d71-802e-8007-69c1593b69ae-0')"/></g></g></g></g></svg>