<svg width="55" xmlns="http://www.w3.org/2000/svg" height="55" id="screenshot-21b189aa-8d71-802e-8007-69c2737260f5" viewBox="0 0 55 55" xmlns:xlink="http://www.w3.org/1999/xlink" fill="none" version="1.1"><g id="shape-21b189aa-8d71-802e-8007-69c2737260f5" rx="0" ry="0" style="fill: rgb(0, 0, 0);"><g id="shape-39012618-5002-8074-8007-6a46ce6fd099"><g class="fills" id="fills-39012618-5002-8074-8007-6a46ce6fd099"><rect rx="0" ry="0" x="0" y="0" transform="matrix(1.000000, 0.000000, 0.000000, 1.000000, 0.000000, 0.000000)" width="55" height="55" style="fill: rgb(177, 178, 181); fill-opacity: 0;"/></g></g><g id="shape-21b189aa-8d71-802e-8007-69c27373ddb9"><g class="fills" id="fills-21b189aa-8d71-802e-8007-69c27373ddb9"><path d="M36.73542785644531,26.583984375L51.03125,19.044921875C51.51667785644531,18.763671875,52.1854248046875,19.296875,51.95208740234375,19.853515625L44.63124084472656,38.625ZM18.910430908203125,26.107421875L26.145828247070312,15.30078125C26.568756103515625,14.6171875,27.350006103515625,14.640625,27.79791259765625,15.244140625L44.227081298828125,39.72265625ZM11.879180908203125,41.212890625C11.29583740234375,41.212890625,10.1395263671875,40.6171875,9.810394287109375,39.71875L2.060394287109375,20.0078125C1.814605712890625,19.3203125,2.350006103515625,18.73046875,3.0604248046875,19.044921875L43.631256103515625,40.515625C43.320831298828125,40.822265625,42.6875,41.216796875,42.131256103515625,41.212890625Z"/></g><g id="strokes-8b2cca75-8f76-804e-8007-6a98ddc3beb7-21b189aa-8d71-802e-8007-69c27373ddb9" class="strokes"><g class="inner-stroke-shape"><defs><clipPath id="inner-stroke-render-3-21b189aa-8d71-802e-8007-69c27373ddb9-0"><use href="#stroke-shape-render-3-21b189aa-8d71-802e-8007-69c27373ddb9-0"/></clipPath><path d="M36.73542785644531,26.583984375L51.03125,19.044921875C51.51667785644531,18.763671875,52.1854248046875,19.296875,51.95208740234375,19.853515625L44.63124084472656,38.625ZM18.910430908203125,26.107421875L26.145828247070312,15.30078125C26.568756103515625,14.6171875,27.350006103515625,14.640625,27.79791259765625,15.244140625L44.227081298828125,39.72265625ZM11.879180908203125,41.212890625C11.29583740234375,41.212890625,10.1395263671875,40.6171875,9.810394287109375,39.71875L2.060394287109375,20.0078125C1.814605712890625,19.3203125,2.350006103515625,18.73046875,3.0604248046875,19.044921875L43.631256103515625,40.515625C43.320831298828125,40.822265625,42.6875,41.216796875,42.131256103515625,41.212890625Z" id="stroke-shape-render-3-21b189aa-8d71-802e-8007-69c27373ddb9-0" style="fill: none; stroke-width: 4; stroke: rgb(255, 255, 255); stroke-opacity: 1;"/></defs><use href="#stroke-shape-render-3-21b189aa-8d71-802e-8007-69c27373ddb9-0" clip-path="url('#inner-stroke-render-3-21b189aa-8d71-802e-8007-69c27373ddb9-0')"/></g></g></g></g></svg>